<svg width="64" height="64" viewBox="0 0 64 64" fill="none" xmlns="http://www.w3.org/2000/svg">
  <rect width="64" height="64" rx="16" fill="#fff"/>
  <path d="M32 18c-7.5 0-13.5 5.1-13.5 11.4 0 2.7 1.2 5.2 3.2 7.1C21.2 37.7 20 40.2 20 43c0 4.4 4.5 8 12 8s12-3.6 12-8c0-2.8-1.2-5.3-1.7-6.5 2-1.9 3.2-4.4 3.2-7.1C45.5 23.1 39.5 18 32 18z" fill="#4CAF50"/>
  <ellipse cx="32" cy="43" rx="10" ry="5" fill="#fff"/>
  <path d="M28.5 32c-1.7 0-3 1.3-3 3 0 2.2 2.2 4.2 5.5 6.7 3.3-2.5 5.5-4.5 5.5-6.7 0-1.7-1.3-3-3-3-1.1 0-2 .6-2.5 1.5C30.5 32.6 29.6 32 28.5 32z" fill="#E57373"/>
</svg>